<?xml version="1.0" encoding="UTF-8" standalone="no"?>
<!-- Created with Inkscape (http://www.inkscape.org/) -->
<svg xmlns:i="http://ns.adobe.com/AdobeIllustrator/10.0/" xmlns:dc="http://purl.org/dc/elements/1.1/" xmlns:cc="http://creativecommons.org/ns#" xmlns:rdf="http://www.w3.org/1999/02/22-rdf-syntax-ns#" xmlns:svg="http://www.w3.org/2000/svg" xmlns="http://www.w3.org/2000/svg" xmlns:sodipodi="http://sodipodi.sourceforge.net/DTD/sodipodi-0.dtd" xmlns:inkscape="http://www.inkscape.org/namespaces/inkscape" width="210mm" height="297mm" id="svg3506" version="1.1" inkscape:version="0.48.4 r9939" sodipodi:docname="funciona-con.fedora.svg" inkscape:export-filename="/home/william/Documentos/artes graficas/fedora/funcionaconfedora.png" inkscape:export-xdpi="57.049999" inkscape:export-ydpi="57.049999">
  <defs id="defs3508"/>
  <sodipodi:namedview id="base" pagecolor="#ffffff" bordercolor="#666666" borderopacity="1.0" inkscape:pageopacity="0.0" inkscape:pageshadow="2" inkscape:zoom="0.35" inkscape:cx="350" inkscape:cy="520" inkscape:document-units="px" inkscape:current-layer="layer1" showgrid="false" inkscape:window-width="1356" inkscape:window-height="712" inkscape:window-x="0" inkscape:window-y="0" inkscape:window-maximized="1"/>
  <metadata id="metadata3511">
    <rdf:RDF>
      <cc:Work rdf:about="">
        <dc:format>image/svg+xml</dc:format>
        <dc:type rdf:resource="http://purl.org/dc/dcmitype/StillImage"/>
        <dc:title/>
      </cc:Work>
    </rdf:RDF>
  </metadata>
  <g inkscape:label="Capa 1" inkscape:groupmode="layer" id="layer1">
    <rect ry="47.026123" y="6.6859808" x="33.017258" height="1037.8228" width="687.9729" id="rect3261" style="fill:#ffffff;fill-opacity:1;stroke:#294172;stroke-width:13.68127918;stroke-linecap:round;stroke-linejoin:bevel;stroke-miterlimit:4;stroke-opacity:1;stroke-dasharray:none;stroke-dashoffset:0"/>
    <g transform="matrix(4.2574809,0,0,4.2574809,-2497.7026,83.983952)" id="g3263">
      <g id="g3265">
        <path style="fill:#294172;fill-opacity:1" i:knockout="Off" d="M 737.644,62.432 C 737.644,27.952 709.693,0 675.213,0 640.749,0 612.809,27.929 612.784,62.388 l -0.002,-0.002 0,48.312 0.002,0.002 c 0.019,7.824 6.364,14.158 14.193,14.158 0.022,0 0.044,-0.002 0.067,-0.002 l 0.004,0.002 48.189,0 0,0 c 34.47,-0.014 62.407,-27.956 62.407,-62.426 z" id="path3267" inkscape:connector-curvature="0"/>
        <g id="g3269">
          <path style="fill:#3c6eb4;fill-opacity:1" i:knockout="Off" d="m 693.543,14.799 c -16.183,0 -29.301,13.118 -29.301,29.301 0,0.006 0,0.013 0,0.021 l 0,15.509 -15.46,0 c -0.003,0 -0.003,0 -0.005,0 -16.184,0 -29.301,13.054 -29.301,29.235 0,16.183 13.117,29.302 29.301,29.302 16.182,0 29.301,-13.12 29.301,-29.302 0,-0.005 0,-0.013 0,-0.019 l 0,-15.575 15.459,0 c 0.003,0 0.005,0 0.006,0 16.182,0 29.301,-12.988 29.301,-29.171 0,-16.183 -13.119,-29.301 -29.301,-29.301 z m -29.3,74.092 c -0.014,8.529 -6.934,15.441 -15.465,15.441 -8.541,0 -15.529,-6.925 -15.529,-15.466 0,-8.542 6.988,-15.596 15.529,-15.596 0.008,0 0.015,0.002 0.021,0.002 l 13.251,0 c 0.004,0 0.007,-0.002 0.01,-0.002 1.206,0 2.185,0.976 2.185,2.182 0,0.001 -10e-4,0.003 -10e-4,0.005 l 0,13.434 -10e-4,0 z m 29.299,-29.262 c -0.005,0 -0.01,0 -0.015,0 l -13.26,0 c -0.002,0 -0.006,0 -0.006,0 -1.208,0 -2.184,-0.978 -2.184,-2.184 l 0,-0.002 0,-13.369 c 0.015,-8.532 6.933,-15.441 15.464,-15.441 8.542,0 15.531,6.924 15.531,15.467 0.002,8.541 -6.988,15.529 -15.53,15.529 z" id="path3271" inkscape:connector-curvature="0"/>
        </g>
        <path style="fill:#ffffff" i:knockout="Off" d="m 664.243,59.629 0,-15.509 c 0,-0.008 0,-0.015 0,-0.021 0,-16.183 13.118,-29.301 29.301,-29.301 2.456,0 4.2,0.275 6.474,0.871 3.313,0.868 6.02,3.583 6.021,6.744 10e-4,3.82 -2.772,6.597 -6.916,6.597 -1.975,0 -2.688,-0.378 -5.58,-0.378 -8.531,0 -15.449,6.909 -15.464,15.441 l 0,13.369 0,0.002 c 0,1.206 0.976,2.184 2.184,2.184 0,0 0.004,0 0.006,0 l 10.155,0 c 3.785,0 6.84,3.028 6.843,6.822 0,3.797 -3.059,6.819 -6.843,6.819 l -12.345,0 0,15.575 c 0,0.006 0,0.014 0,0.021 0,16.181 -13.119,29.3 -29.301,29.3 -2.455,0 -4.2,-0.277 -6.473,-0.871 -3.313,-0.867 -6.021,-3.584 -6.022,-6.744 0,-3.82 2.772,-6.598 6.917,-6.598 1.973,0 2.688,0.379 5.578,0.379 8.531,0 15.451,-6.91 15.466,-15.441 0,0 0,-13.438 0,-13.438 0,-1.204 -0.979,-2.18 -2.185,-2.18 -0.002,0 -0.003,0 -0.006,0 L 651.899,73.27 c -3.785,0 -6.844,-3.02 -6.844,-6.815 -0.002,-3.819 3.09,-6.826 6.916,-6.826 l 12.272,0 0,0 z" id="path3273" inkscape:connector-curvature="0"/>
      </g>
    </g>
    <path id="path3275" d="M 363.38351,746.94099 C 247.91963,747.05064 136.83166,759.13131 33.017258,782.7322 l 0,214.74723 c 0,26.05247 20.976927,47.02947 47.029398,47.02937 l 593.914114,0 c 26.05248,0 47.0294,-20.9769 47.0294,-47.02937 l 0,-214.564 C 599.41259,758.75329 479.20576,746.83102 363.38351,746.94099 z" style="fill:#294172;fill-opacity:1;stroke-width:7;stroke-linecap:round;stroke-linejoin:bevel;stroke-miterlimit:4;stroke-opacity:1;stroke-dashoffset:0" inkscape:connector-curvature="0"/>
    <g transform="matrix(0.84240035,0,0,0.84240035,111.83598,770.73751)" id="g3277">
      <g id="g3279">
        <path id="path3281" d="m 171.913,178.874 c 0,0 0,0 -70.316,0 1.138,15.243 13.426,26.623 29.809,26.623 11.605,0 21.619,-4.779 29.583,-12.514 1.594,-1.599 3.414,-2.053 5.461,-2.053 2.731,0 5.463,1.368 7.282,3.644 1.139,1.593 1.822,3.414 1.822,5.232 0,2.504 -1.139,5.233 -3.188,7.283 -9.558,10.238 -25.714,17.066 -41.645,17.066 -28.899,0 -52.109,-23.21 -52.109,-52.111 0,-28.898 22.528,-52.109 51.427,-52.109 28.673,0 50.063,22.3 50.063,51.653 0.002,4.326 -3.866,7.286 -8.189,7.286 z M 130.04,138.595 c -15.246,0 -25.713,10.012 -27.988,24.571 34.36,0 55.978,0 55.978,0 -2.048,-13.876 -12.971,-24.571 -27.99,-24.571 z" i:knockout="Off" style="fill:#fefefe;fill-opacity:1" inkscape:connector-curvature="0"/>
        <path id="path3283" d="m 372.838,224.156 c -28.899,0 -52.108,-23.21 -52.108,-52.111 0,-28.898 23.209,-52.109 52.108,-52.109 28.902,0 52.111,23.211 52.111,52.109 10e-4,28.901 -23.208,52.111 -52.111,52.111 z m 0,-84.425 c -18.203,0 -30.038,14.566 -30.038,32.313 0,17.747 11.835,32.312 30.038,32.312 18.205,0 30.041,-14.565 30.041,-32.312 0,-17.747 -11.836,-32.313 -30.041,-32.313 z" i:knockout="Off" style="fill:#fefefe;fill-opacity:1" inkscape:connector-curvature="0"/>
        <path id="path3285" d="m 500.19,119.935 c -15.268,0 -25.367,4.516 -34.283,15.851 l -0.823,-5.272 0,0 c -0.692,-5.504 -5.387,-9.754 -11.071,-9.754 -6.167,0 -11.168,4.994 -11.168,11.164 0,0.008 0,0.017 0,0.025 l 0,0 0,0.01 0,0 0,80.136 c 0,6.144 5.005,11.151 11.15,11.151 6.144,0 11.151,-5.008 11.151,-11.151 l 0,-43.007 c 0,-19.569 17.066,-29.356 35.044,-29.356 5.462,0 9.783,-4.551 9.783,-10.013 0,-5.462 -4.321,-9.784 -9.783,-9.784 z" i:knockout="Off" style="fill:#fefefe;fill-opacity:1" inkscape:connector-curvature="0"/>
        <path id="path3287" d="m 617.836,172.044 c 0.229,-27.988 -19.799,-52.109 -52.112,-52.109 -28.9,0 -52.339,23.211 -52.339,52.109 0,28.901 22.756,52.111 50.292,52.111 13.742,0 26.11,-7.074 31.628,-14.464 l 2.717,6.896 0,0 c 1.458,3.874 5.195,6.632 9.578,6.632 5.649,0 10.229,-4.576 10.236,-10.221 l 0,0 0,-26.728 0,0 0,-14.226 z m -52.112,32.313 c -18.206,0 -30.038,-14.565 -30.038,-32.312 0,-17.747 11.832,-32.313 30.038,-32.313 18.204,0 30.038,14.566 30.038,32.313 0,17.747 -11.834,32.312 -30.038,32.312 z" i:knockout="Off" style="fill:#fefefe;fill-opacity:1" inkscape:connector-curvature="0"/>
        <path id="path3289" d="m 302.833,78.744 c 0,-6.142 -5.005,-10.922 -11.148,-10.922 -6.144,0 -11.153,4.78 -11.153,10.922 l 0,58.712 c -5.687,-10.467 -17.975,-17.521 -32.54,-17.521 -29.582,0 -49.379,22.3 -49.379,52.109 0,29.812 20.48,52.111 49.379,52.111 12.891,0 24.068,-5.32 30.762,-14.568 l 2.476,6.279 c 1.534,4.312 5.646,7.396 10.478,7.396 6.116,0 11.126,-4.979 11.126,-11.12 0,-0.017 0,-0.031 0,-0.048 l 0,0 0,-133.35 -10e-4,0 z m -52.111,125.613 c -18.203,0 -29.809,-14.565 -29.809,-32.312 0,-17.747 11.605,-32.313 29.809,-32.313 18.206,0 29.81,13.881 29.81,32.313 0,18.428 -11.604,32.312 -29.81,32.312 z" i:knockout="Off" style="fill:#fefefe;fill-opacity:1" inkscape:connector-curvature="0"/>
        <path id="path3291" d="m 70.718,68.496 c -2.034,-0.301 -4.107,-0.453 -6.166,-0.453 -23.044,0 -41.793,18.75 -41.793,41.795 l 0,13.055 -13.655,0 c -5.006,0 -9.104,4.097 -9.104,9.101 0,5.009 4.098,10.057 9.104,10.057 l 13.654,0 0,70.045 c 0,6.144 5.007,11.151 11.149,11.151 6.146,0 11.152,-5.008 11.152,-11.151 l 0,-70.045 15.097,0 c 5.005,0 9.101,-5.048 9.101,-10.057 0,-5.004 -4.095,-9.101 -9.101,-9.101 l -15.09,0 0,-13.055 c 0,-10.745 8.741,-20.934 19.486,-20.934 0.968,0 1.943,0.072 2.899,0.213 6.095,0.902 11.764,-1.858 12.668,-7.954 0.9,-6.093 -3.307,-11.763 -9.401,-12.667 z" i:knockout="Off" style="fill:#fefefe;fill-opacity:1" inkscape:connector-curvature="0"/>
      </g>
      <path style="fill:#0a57a4" i:knockout="Off" d="m 622.661,209.697 0,3.409 -0.696,0 0,-3.409 -1.165,0 0,-0.687 3.024,0 0,0.687 -1.163,0 z m 4.844,3.409 0,-2.162 c 0,-0.144 0,-0.321 0,-0.468 -0.052,0.124 -0.116,0.27 -0.166,0.406 l -1.021,2.35 -1,-2.35 c -0.05,-0.137 -0.113,-0.282 -0.163,-0.396 0.01,0.146 0.01,0.323 0.01,0.458 l 0,2.162 -0.665,0 0,-4.096 0.696,0 0.928,2.12 c 0.071,0.179 0.154,0.406 0.216,0.562 0.062,-0.167 0.146,-0.373 0.219,-0.562 l 0.904,-2.12 0.706,0 0,4.096 -0.664,0 0,0 z" id="path3293" inkscape:connector-curvature="0"/>
    </g>
    <flowRoot xml:space="preserve" id="flowRoot3073" style="font-size:40px;font-style:normal;font-variant:normal;font-weight:normal;font-stretch:normal;line-height:125%;letter-spacing:0px;word-spacing:0px;fill:#3c6eb4;fill-opacity:1;stroke:none;font-family:Monospace;-inkscape-font-specification:Monospace" transform="translate(-14.285714,46.857143)"><flowRegion id="flowRegion3075"><rect id="rect3077" width="605.71429" height="185.71428" x="62.857143" y="609.50507" style="fill:#3c6eb4;fill-opacity:1"/></flowRegion><flowPara id="flowPara3079" style="font-size:65px;font-style:normal;font-variant:normal;font-weight:bold;font-stretch:normal;fill:#3c6eb4;fill-opacity:1;font-family:Cantarell;-inkscape-font-specification:Cantarell Bold">Funciona con</flowPara></flowRoot>  </g>
</svg>